<svg xmlns="http://www.w3.org/2000/svg" version="1.0" preserveAspectRatio="xMidYMid meet" viewBox="45.17 65.28 164.33 135.42">

<g transform="translate(0.000000,256.000000) scale(0.100000,-0.100000)" fill="#000000" stroke="none">
<path d="M653 1901 c-88 -22 -169 -102 -193 -192 -14 -52 -9 -1151 6 -1156 6 -2 95 55 197 126 l187 130 523 3 c505 3 523 4 567 24 54 25 103 72 133 128 22 40 22 49 22 396 0 347 0 356 -22 396 -28 53 -74 99 -127 127 -41 22 -42 22 -651 24 -335 1 -624 -2 -642 -6z m373 -326 c21 -32 11 -50 -74 -137 l-76 -78 82 -84 c45 -46 82 -90 82 -99 0 -27 -35 -59 -65 -59 -23 0 -49 21 -137 109 -74 76 -108 117 -108 133 0 25 188 226 225 240 27 10 54 1 71 -25z m383 -6 c13 -23 8 -37 -59 -189 -98 -223 -116 -257 -137 -262 -28 -8 -62 9 -74 36 -10 21 0 49 75 217 97 218 94 212 120 226 26 14 58 2 75 -28z m305 -78 c73 -75 106 -115 106 -131 0 -16 -33 -57 -108 -133 -88 -88 -114 -109 -137 -109 -30 0 -65 32 -65 59 0 9 37 53 82 99 l82 84 -82 84 c-45 46 -82 89 -82 95 0 38 45 73 81 64 9 -3 65 -53 123 -112z"/>
</g>
</svg>